<svg width="141" height="71" viewBox="0 0 141 71" fill="none" xmlns="http://www.w3.org/2000/svg">
<path d="M44.88 57V18.12H50.928L58.896 36.84V18.12H66V57H60.192L52.224 36.84V57H44.88ZM80.4263 57.48C78.4103 57.48 76.6823 57.128 75.2422 56.424C73.8023 55.688 72.6983 54.632 71.9303 53.256C71.1623 51.848 70.7783 50.168 70.7783 48.216V38.04C70.7783 36.056 71.1623 34.376 71.9303 33C72.6983 31.624 73.8023 30.584 75.2422 29.88C76.7143 29.144 78.4423 28.776 80.4263 28.776C82.4743 28.776 84.1703 29.128 85.5143 29.832C86.8903 30.536 87.9143 31.576 88.5863 32.952C89.2903 34.328 89.6423 36.024 89.6423 38.04V43.608H78.5063V48.936C78.5063 49.64 78.5863 50.216 78.7463 50.664C78.9063 51.112 79.1303 51.432 79.4183 51.624C79.7063 51.816 80.0423 51.912 80.4263 51.912C80.8103 51.912 81.1463 51.832 81.4343 51.672C81.7543 51.48 81.9943 51.192 82.1543 50.808C82.3463 50.424 82.4423 49.896 82.4423 49.224V46.296H89.6423V48.984C89.6423 51.8 88.8263 53.928 87.1943 55.368C85.5623 56.776 83.3063 57.48 80.4263 57.48ZM78.5063 39.96H82.4423V37.176C82.4423 36.44 82.3463 35.864 82.1543 35.448C81.9943 35.032 81.7543 34.744 81.4343 34.584C81.1463 34.424 80.7943 34.344 80.3783 34.344C79.9943 34.344 79.6583 34.44 79.3703 34.632C79.1143 34.824 78.9063 35.16 78.7463 35.64C78.5863 36.088 78.5063 36.744 78.5063 37.608V39.96ZM96.5411 57L92.4611 29.256H98.9891L101.005 45L103.165 29.256H108.829L110.701 45.384L113.053 29.256H119.101L114.973 57H108.253L105.853 41.4L103.165 57H96.5411ZM131.086 57.48C128.654 57.48 126.622 56.936 124.99 55.848C123.39 54.76 122.078 52.984 121.054 50.52L126.382 48.168C126.894 49.416 127.486 50.408 128.158 51.144C128.862 51.848 129.63 52.2 130.462 52.2C131.07 52.2 131.518 52.072 131.806 51.816C132.126 51.56 132.286 51.208 132.286 50.76C132.286 50.024 131.998 49.352 131.422 48.744C130.878 48.136 129.886 47.24 128.446 46.056L126.43 44.376C124.958 43.128 123.79 41.928 122.926 40.776C122.094 39.592 121.678 38.136 121.678 36.408C121.678 34.904 122.062 33.576 122.83 32.424C123.63 31.272 124.686 30.376 125.998 29.736C127.31 29.096 128.718 28.776 130.222 28.776C132.494 28.776 134.398 29.4 135.934 30.648C137.47 31.896 138.542 33.656 139.15 35.928L134.11 38.232C133.918 37.624 133.646 37.016 133.294 36.408C132.942 35.8 132.51 35.288 131.998 34.872C131.518 34.456 130.99 34.248 130.414 34.248C129.902 34.248 129.486 34.392 129.166 34.68C128.878 34.968 128.734 35.352 128.734 35.832C128.734 36.44 129.07 37.096 129.742 37.8C130.446 38.504 131.406 39.352 132.622 40.344L134.59 42.072C135.39 42.744 136.174 43.464 136.942 44.232C137.71 45 138.334 45.848 138.814 46.776C139.326 47.704 139.582 48.76 139.582 49.944C139.582 51.544 139.182 52.92 138.382 54.072C137.582 55.192 136.526 56.04 135.214 56.616C133.934 57.192 132.558 57.48 131.086 57.48Z" fill="#2E4D43"/>
<path d="M9.792 65.592C8.128 65.592 6.624 65.416 5.28 65.064C3.936 64.712 2.88 64.152 2.112 63.384C1.344 62.616 0.96 61.608 0.96 60.36C0.96 59.464 1.152 58.68 1.536 58.008C1.92 57.336 2.416 56.76 3.024 56.28C3.632 55.768 4.272 55.352 4.944 55.032C4.048 54.776 3.376 54.376 2.928 53.832C2.48 53.256 2.256 52.664 2.256 52.056C2.256 51.032 2.528 50.152 3.072 49.416C3.616 48.68 4.368 47.88 5.328 47.016C4.272 46.216 3.472 45.192 2.928 43.944C2.384 42.696 2.112 40.968 2.112 38.76C2.112 36.584 2.4 34.776 2.976 33.336C3.584 31.864 4.464 30.76 5.616 30.024C6.8 29.256 8.24 28.872 9.936 28.872C11.44 28.872 12.64 29.128 13.536 29.64C14.464 30.152 15.168 30.92 15.648 31.944C15.808 31.688 16.24 31.256 16.944 30.648C17.648 30.008 18.464 29.48 19.392 29.064L20.16 28.728L21.456 32.04C21.04 32.104 20.48 32.264 19.776 32.52C19.104 32.744 18.464 32.984 17.856 33.24C17.28 33.464 16.912 33.656 16.752 33.816C16.976 34.36 17.168 35.144 17.328 36.168C17.52 37.192 17.616 38.104 17.616 38.904C17.616 40.792 17.376 42.456 16.896 43.896C16.416 45.336 15.616 46.472 14.496 47.304C13.408 48.104 11.888 48.504 9.936 48.504C9.52 48.504 9.072 48.472 8.592 48.408C8.112 48.344 7.68 48.264 7.296 48.168C7.104 48.456 6.896 48.792 6.672 49.176C6.48 49.56 6.384 49.928 6.384 50.28C6.384 50.632 6.56 50.92 6.912 51.144C7.296 51.336 7.888 51.464 8.688 51.528L13.008 51.912C15.184 52.104 16.8 52.76 17.856 53.88C18.912 55 19.44 56.6 19.44 58.68C19.44 60.184 19.088 61.448 18.384 62.472C17.68 63.528 16.608 64.312 15.168 64.824C13.76 65.336 11.968 65.592 9.792 65.592ZM10.176 61.56C12 61.56 13.344 61.336 14.208 60.888C15.072 60.472 15.504 59.784 15.504 58.824C15.504 58.248 15.392 57.768 15.168 57.384C14.976 57 14.608 56.696 14.064 56.472C13.52 56.248 12.736 56.088 11.712 55.992L7.344 55.608C6.992 55.96 6.656 56.312 6.336 56.664C6.016 57.016 5.76 57.384 5.568 57.768C5.376 58.184 5.28 58.616 5.28 59.064C5.28 59.896 5.632 60.52 6.336 60.936C7.04 61.352 8.32 61.56 10.176 61.56ZM9.936 44.904C10.672 44.904 11.248 44.776 11.664 44.52C12.112 44.232 12.448 43.832 12.672 43.32C12.896 42.776 13.04 42.12 13.104 41.352C13.2 40.584 13.248 39.72 13.248 38.76C13.248 37.8 13.2 36.936 13.104 36.168C13.04 35.368 12.896 34.696 12.672 34.152C12.48 33.576 12.16 33.144 11.712 32.856C11.296 32.568 10.72 32.424 9.984 32.424C9.28 32.424 8.688 32.568 8.208 32.856C7.76 33.144 7.424 33.56 7.2 34.104C6.976 34.616 6.816 35.272 6.72 36.072C6.624 36.84 6.576 37.736 6.576 38.76C6.576 39.624 6.608 40.44 6.672 41.208C6.768 41.944 6.928 42.584 7.152 43.128C7.408 43.672 7.76 44.104 8.208 44.424C8.656 44.744 9.232 44.904 9.936 44.904ZM23.4514 57V29.256H28.5874V31.992C29.5154 31.128 30.5394 30.392 31.6594 29.784C32.7794 29.176 34.0114 28.872 35.3554 28.872C36.4754 28.872 37.3234 29.16 37.8994 29.736C38.5074 30.312 38.9234 31.032 39.1474 31.896C39.4034 32.76 39.5314 33.64 39.5314 34.536V57H34.3954V36.024C34.3954 35.032 34.2514 34.264 33.9634 33.72C33.6754 33.176 33.0834 32.904 32.1874 32.904C31.6114 32.904 31.0034 33.08 30.3634 33.432C29.7554 33.752 29.1634 34.152 28.5874 34.632V57H23.4514Z" fill="#718879"/>
</svg>
